<svg xmlns="http://www.w3.org/2000/svg" viewBox="0 0 400 400"><defs><style>.e087399d-962b-405f-821f-e7acd5b02363{fill:#fff;}.abe8164d-34da-4391-8205-446bbfbf5556,.e60428ea-dd9b-4270-b407-5694cd810e13{fill:#008803;}.abe8164d-34da-4391-8205-446bbfbf5556{stroke:#fff;stroke-miterlimit:10;}</style></defs><g id="b3c476ff-be59-48c4-81ee-2bf37792bdba" data-name="レイヤー 2"><g id="fe16d14a-59fe-43f6-a775-6ecd6105a696" data-name="レイヤー 1"><rect class="e087399d-962b-405f-821f-e7acd5b02363" width="400" height="400"/><ellipse class="abe8164d-34da-4391-8205-446bbfbf5556" cx="234.04" cy="55.63" rx="16.76" ry="16.77"/><ellipse class="abe8164d-34da-4391-8205-446bbfbf5556" cx="309.45" cy="36.77" rx="16.76" ry="16.77"/><ellipse class="abe8164d-34da-4391-8205-446bbfbf5556" cx="94.52" cy="36.77" rx="16.76" ry="16.77"/><ellipse class="abe8164d-34da-4391-8205-446bbfbf5556" cx="164.28" cy="55.63" rx="16.76" ry="16.77"/><path class="e60428ea-dd9b-4270-b407-5694cd810e13" d="M355.38,272.27a10.22,10.22,0,0,1-8.22-4.15,10.19,10.19,0,0,1-8.21,4.15h-4.31a10.23,10.23,0,0,1-10.22-10.22V187.38h-2.74a10.47,10.47,0,0,1-10.45-10.46V114A17.42,17.42,0,0,1,328.62,96.6h37.09A17.42,17.42,0,0,1,383.1,114v62.91a10.47,10.47,0,0,1-10.46,10.46H369.9v74.67a10.22,10.22,0,0,1-10.21,10.22Z"/><path class="e087399d-962b-405f-821f-e7acd5b02363" d="M365.71,98.6A15.4,15.4,0,0,1,381.1,114v62.91a8.46,8.46,0,0,1-8.46,8.46H367.9v76.67a8.22,8.22,0,0,1-8.21,8.22h-4.31a8.22,8.22,0,0,1-8.22-8.22,8.22,8.22,0,0,1-8.21,8.22h-4.31a8.22,8.22,0,0,1-8.22-8.22V185.38h-4.74a8.45,8.45,0,0,1-8.45-8.46V114A15.4,15.4,0,0,1,328.62,98.6h37.09m0-4H328.62A19.42,19.42,0,0,0,309.23,114v62.91a12.47,12.47,0,0,0,12.45,12.46h.74v72.67a12.23,12.23,0,0,0,12.22,12.22H339a12.18,12.18,0,0,0,8.21-3.18,12.21,12.21,0,0,0,8.22,3.18h4.31a12.23,12.23,0,0,0,12.21-12.22V189.38h.74a12.47,12.47,0,0,0,12.46-12.46V114A19.42,19.42,0,0,0,365.71,94.6Z"/><path class="e60428ea-dd9b-4270-b407-5694cd810e13" d="M347.16,93.06A20.87,20.87,0,1,1,368,72.19,20.88,20.88,0,0,1,347.16,93.06Z"/><path class="e087399d-962b-405f-821f-e7acd5b02363" d="M347.16,53.33a18.87,18.87,0,1,1-18.85,18.86,18.85,18.85,0,0,1,18.85-18.86m0-4A22.87,22.87,0,1,0,370,72.19a22.88,22.88,0,0,0-22.86-22.86Z"/><path class="e60428ea-dd9b-4270-b407-5694cd810e13" d="M285.62,289.25a10.23,10.23,0,0,1-8.22-4.15,10.22,10.22,0,0,1-8.21,4.15h-4.31A10.24,10.24,0,0,1,254.66,279V204.36h-2.74a10.48,10.48,0,0,1-10.46-10.46V131a17.43,17.43,0,0,1,17.4-17.4H296A17.42,17.42,0,0,1,313.34,131V193.9a10.48,10.48,0,0,1-10.46,10.46h-2.74V279a10.23,10.23,0,0,1-10.21,10.22Z"/><path class="e087399d-962b-405f-821f-e7acd5b02363" d="M296,115.58A15.4,15.4,0,0,1,311.34,131v62.91a8.47,8.47,0,0,1-8.46,8.47h-4.74V279a8.22,8.22,0,0,1-8.21,8.22h-4.31A8.22,8.22,0,0,1,277.4,279a8.22,8.22,0,0,1-8.21,8.22h-4.31a8.22,8.22,0,0,1-8.22-8.22V202.36h-4.74a8.46,8.46,0,0,1-8.45-8.47V131a15.4,15.4,0,0,1,15.39-15.4H296m0-4H258.86A19.42,19.42,0,0,0,239.47,131v62.91a12.47,12.47,0,0,0,12.45,12.47h.74V279a12.23,12.23,0,0,0,12.22,12.22h4.31a12.14,12.14,0,0,0,8.21-3.19,12.17,12.17,0,0,0,8.22,3.19h4.31A12.23,12.23,0,0,0,302.14,279V206.36h.74a12.48,12.48,0,0,0,12.46-12.47V131A19.42,19.42,0,0,0,296,111.58Z"/><path class="e60428ea-dd9b-4270-b407-5694cd810e13" d="M277.4,110a20.87,20.87,0,1,1,20.86-20.87A20.88,20.88,0,0,1,277.4,110Z"/><path class="e087399d-962b-405f-821f-e7acd5b02363" d="M277.4,70.31a18.86,18.86,0,1,1-18.85,18.86A18.85,18.85,0,0,1,277.4,70.31m0-4a22.86,22.86,0,1,0,22.86,22.86A22.88,22.88,0,0,0,277.4,66.31Z"/><path class="e60428ea-dd9b-4270-b407-5694cd810e13" d="M61.25,272.27A10.19,10.19,0,0,1,53,268.12a10.19,10.19,0,0,1-8.22,4.15H40.51A10.22,10.22,0,0,1,30.3,262.05V187.38H27.56A10.47,10.47,0,0,1,17.1,176.92V114A17.42,17.42,0,0,1,34.5,96.6H71.58A17.43,17.43,0,0,1,89,114v62.91a10.48,10.48,0,0,1-10.46,10.46H75.78v74.67a10.23,10.23,0,0,1-10.22,10.22Z"/><path class="e087399d-962b-405f-821f-e7acd5b02363" d="M71.58,98.6A15.41,15.41,0,0,1,87,114v62.91a8.46,8.46,0,0,1-8.46,8.46H73.78v76.67a8.22,8.22,0,0,1-8.22,8.22H61.25A8.22,8.22,0,0,1,53,262.05a8.22,8.22,0,0,1-8.22,8.22H40.51a8.22,8.22,0,0,1-8.21-8.22V185.38H27.56a8.46,8.46,0,0,1-8.46-8.46V114A15.4,15.4,0,0,1,34.5,98.6H71.58m0-4H34.5A19.43,19.43,0,0,0,15.1,114v62.91a12.47,12.47,0,0,0,12.46,12.46h.74v72.67a12.23,12.23,0,0,0,12.21,12.22h4.31A12.21,12.21,0,0,0,53,271.09a12.18,12.18,0,0,0,8.21,3.18h4.31a12.23,12.23,0,0,0,12.22-12.22V189.38h.74A12.47,12.47,0,0,0,91,176.92V114A19.43,19.43,0,0,0,71.58,94.6Z"/><path class="e60428ea-dd9b-4270-b407-5694cd810e13" d="M53,93.06A20.87,20.87,0,1,1,73.89,72.19,20.89,20.89,0,0,1,53,93.06Z"/><path class="e087399d-962b-405f-821f-e7acd5b02363" d="M53,53.33A18.87,18.87,0,1,1,34.18,72.19,18.85,18.85,0,0,1,53,53.33m0-4A22.87,22.87,0,1,0,75.89,72.19,22.89,22.89,0,0,0,53,49.33Z"/><path class="e60428ea-dd9b-4270-b407-5694cd810e13" d="M131,289.25a10.22,10.22,0,0,1-8.21-4.15,10.22,10.22,0,0,1-8.22,4.15h-4.31A10.23,10.23,0,0,1,100.06,279V204.36H97.32A10.48,10.48,0,0,1,86.86,193.9V131a17.42,17.42,0,0,1,17.4-17.4h37.08a17.43,17.43,0,0,1,17.4,17.4V193.9a10.48,10.48,0,0,1-10.46,10.46h-2.74V279a10.23,10.23,0,0,1-10.22,10.22Z"/><path class="e087399d-962b-405f-821f-e7acd5b02363" d="M141.34,115.58a15.41,15.41,0,0,1,15.4,15.4v62.91a8.47,8.47,0,0,1-8.46,8.47h-4.74V279a8.22,8.22,0,0,1-8.22,8.22H131A8.22,8.22,0,0,1,122.8,279a8.22,8.22,0,0,1-8.22,8.22h-4.3a8.22,8.22,0,0,1-8.22-8.22V202.36H97.32a8.47,8.47,0,0,1-8.46-8.47V131a15.4,15.4,0,0,1,15.4-15.4h37.08m0-4H104.26A19.42,19.42,0,0,0,84.86,131v62.91a12.48,12.48,0,0,0,12.46,12.47h.74V279a12.23,12.23,0,0,0,12.22,12.22h4.3a12.17,12.17,0,0,0,8.22-3.19,12.14,12.14,0,0,0,8.21,3.19h4.31A12.23,12.23,0,0,0,147.54,279V206.36h.74a12.48,12.48,0,0,0,12.46-12.47V131a19.42,19.42,0,0,0-19.4-19.4Z"/><ellipse class="e60428ea-dd9b-4270-b407-5694cd810e13" cx="122.8" cy="89.17" rx="20.85" ry="20.86"/><path class="e087399d-962b-405f-821f-e7acd5b02363" d="M122.8,70.31a18.86,18.86,0,1,1-18.86,18.86A18.85,18.85,0,0,1,122.8,70.31m0-4a22.86,22.86,0,1,0,22.85,22.86A22.89,22.89,0,0,0,122.8,66.31Z"/><path class="e60428ea-dd9b-4270-b407-5694cd810e13" d="M208.32,310a10.22,10.22,0,0,1-8.22-4.15,10.22,10.22,0,0,1-8.22,4.15h-4.3a10.23,10.23,0,0,1-10.22-10.22V225.11h-2.74a10.47,10.47,0,0,1-10.46-10.46V151.74a17.43,17.43,0,0,1,17.4-17.41h37.08a17.43,17.43,0,0,1,17.4,17.4v62.92a10.47,10.47,0,0,1-10.46,10.46h-2.74v74.67A10.23,10.23,0,0,1,212.62,310Z"/><path class="e087399d-962b-405f-821f-e7acd5b02363" d="M218.64,136.33A15.4,15.4,0,0,1,234,151.74v62.91a8.46,8.46,0,0,1-8.46,8.46h-4.74v76.67a8.22,8.22,0,0,1-8.22,8.22h-4.3a8.22,8.22,0,0,1-8.22-8.22,8.22,8.22,0,0,1-8.22,8.22h-4.3a8.22,8.22,0,0,1-8.22-8.22V223.11h-4.74a8.46,8.46,0,0,1-8.46-8.46V151.74a15.41,15.41,0,0,1,15.4-15.41h37.08m0-4H181.56a19.43,19.43,0,0,0-19.4,19.41v62.91a12.47,12.47,0,0,0,12.46,12.46h.74v72.67A12.23,12.23,0,0,0,187.58,312h4.3a12.21,12.21,0,0,0,8.22-3.18,12.21,12.21,0,0,0,8.22,3.18h4.3a12.23,12.23,0,0,0,12.22-12.22V227.11h.74A12.47,12.47,0,0,0,238,214.65V151.74a19.43,19.43,0,0,0-19.4-19.41Z"/><path class="e60428ea-dd9b-4270-b407-5694cd810e13" d="M200.1,130.79A20.87,20.87,0,1,1,221,109.92,20.88,20.88,0,0,1,200.1,130.79Z"/><path class="e087399d-962b-405f-821f-e7acd5b02363" d="M200.1,91.06a18.87,18.87,0,1,1-18.85,18.86A18.85,18.85,0,0,1,200.1,91.06m0-4A22.87,22.87,0,1,0,223,109.92,22.88,22.88,0,0,0,200.1,87.06Z"/><rect class="e60428ea-dd9b-4270-b407-5694cd810e13" x="330" y="330" width="60" height="46"/><polyline class="e60428ea-dd9b-4270-b407-5694cd810e13" points="310 376 250 376 250 330 310 330"/><polyline class="e60428ea-dd9b-4270-b407-5694cd810e13" points="230 376 170 376 170 330 230 330"/><polyline class="e60428ea-dd9b-4270-b407-5694cd810e13" points="150 376 90 376 90 330 150 330"/><polyline class="e60428ea-dd9b-4270-b407-5694cd810e13" points="70 376 10 376 10 330 70 330"/></g></g></svg>