<svg xmlns="http://www.w3.org/2000/svg" viewBox="0 0 400 400"><defs><style>.e63a45d5-a7cb-4751-948f-f480d43a2a3e{fill:#fff;}.ee0a89b8-d9d3-466f-badf-9b6b560e1b11{fill:#008803;}</style></defs><g id="f9adf386-9342-4838-a3e3-b33525ab48de" data-name="レイヤー 2"><g id="a087ade1-fe8b-4f66-9e5a-ad23ce6ab87e" data-name="レイヤー 1"><rect class="e63a45d5-a7cb-4751-948f-f480d43a2a3e" width="400" height="400"/><path class="ee0a89b8-d9d3-466f-badf-9b6b560e1b11" d="M270.69,282.78a13,13,0,0,0,13.09,12.87h46.47a13,13,0,0,0,13.1-12.87V269.26H270.69Z"/><path class="ee0a89b8-d9d3-466f-badf-9b6b560e1b11" d="M330.25,127H283.78a13,13,0,0,0-13.09,12.87V248.67h72.66V139.88A13,13,0,0,0,330.25,127ZM327,204.9a9.73,9.73,0,0,1-9.82,9.65h-17a10.41,10.41,0,0,1-10.48-9.65V156a10.39,10.39,0,0,1,10.48-10.3h17A10.37,10.37,0,0,1,327,156Z"/><path class="ee0a89b8-d9d3-466f-badf-9b6b560e1b11" d="M369.53,82h-19V72.3A10.38,10.38,0,0,0,340.73,62h-70a10.39,10.39,0,0,0-10.47,10.3V82H136.51V72.3A10.37,10.37,0,0,0,126.69,62h-70A10.39,10.39,0,0,0,46.18,72.3V82H30.47A10.39,10.39,0,0,0,20,92.25v224a10.41,10.41,0,0,0,10.47,9.66h21.6A28.18,28.18,0,0,0,77.6,342a27.51,27.51,0,0,0,24.87-16.09h13.75A26.86,26.86,0,0,0,141.09,342,27.51,27.51,0,0,0,166,325.91h68.73A28.17,28.17,0,0,0,260.22,342a27.51,27.51,0,0,0,24.87-16.09h13.09A28.17,28.17,0,0,0,323.71,342a27.51,27.51,0,0,0,24.87-16.09h20.95A10.41,10.41,0,0,0,380,316.25v-224A10.39,10.39,0,0,0,369.53,82ZM202,156a10.37,10.37,0,0,1,9.82-10.3h17A10.39,10.39,0,0,1,239.27,156h0V204.9a10.39,10.39,0,0,1-10.47,9.65h-17A9.74,9.74,0,0,1,202,204.9Zm-55,0a10.39,10.39,0,0,1,10.47-10.3h17a10.37,10.37,0,0,1,9.82,10.3V204.9a9.73,9.73,0,0,1-9.82,9.65h-17A10.41,10.41,0,0,1,147,204.9Zm-55,0a10.39,10.39,0,0,1,10.47-10.3h17A10.39,10.39,0,0,1,130,156h0V204.9a10.39,10.39,0,0,1-10.47,9.65h-17A10.41,10.41,0,0,1,92,204.9Zm-54.33,0a10.39,10.39,0,0,1,10.48-10.3H64.51A10.39,10.39,0,0,1,75,156h0V204.9a10.39,10.39,0,0,1-10.47,9.65H48.15a10.41,10.41,0,0,1-10.48-9.65ZM362.33,269.26h-7.2v13.52a24.67,24.67,0,0,1-24.88,24.46H283.78a24.66,24.66,0,0,1-24.87-24.46V269.26H36.36V248.67H258.91V139.88a24.66,24.66,0,0,1,24.87-24.45h46.47a24.67,24.67,0,0,1,24.88,24.45V248.67h7.2Z"/></g></g></svg>