<?xml version="1.0" encoding="UTF-8"?><svg id="uuid-8868c7f9-0e6c-436a-8211-9f7f025313a6" xmlns="http://www.w3.org/2000/svg" viewBox="0 0 150 150"><defs><style>.uuid-fc026ef8-4b25-438c-87d7-e2d4d36b31f5{fill:#888;}</style></defs><g id="uuid-3e0ce375-0e9c-4eb3-ab8d-6662dbf500c3"><rect class="uuid-fc026ef8-4b25-438c-87d7-e2d4d36b31f5" x="117" width="33" height="150" rx="4" ry="4"/><g><rect class="uuid-fc026ef8-4b25-438c-87d7-e2d4d36b31f5" y="61.5" width="97" height="27.01" rx="2.91" ry="2.91"/><path class="uuid-fc026ef8-4b25-438c-87d7-e2d4d36b31f5" d="M43.7,12.33l-14.12,14.12c-1.14,1.14-1.14,2.98,0,4.11l42.36,42.38c1.14,1.14,1.14,2.98,0,4.11L29.58,119.44c-1.14,1.14-1.14,2.98,0,4.11l14.89,14.89c1.14,1.14,2.98,1.14,4.11,0l61.36-61.39c1.14-1.14,1.14-2.98,0-4.11L49.35,12.33c-1.56-1.56-4.09-1.56-5.66,0Z"/></g></g></svg>